<?xml version="1.0" encoding="UTF-8" standalone="no"?>
<svg
   xmlns:dc="http://purl.org/dc/elements/1.1/"
   xmlns:cc="http://creativecommons.org/ns#"
   xmlns:rdf="http://www.w3.org/1999/02/22-rdf-syntax-ns#"
   xmlns:svg="http://www.w3.org/2000/svg"
   xmlns="http://www.w3.org/2000/svg"
   xmlns:sodipodi="http://sodipodi.sourceforge.net/DTD/sodipodi-0.dtd"
   xmlns:inkscape="http://www.inkscape.org/namespaces/inkscape"
   width="636.91132"
   height="440.97815"
   viewBox="0 0 636.91132 440.97815"
   version="1.1"
   id="svg3779"
   sodipodi:docname="blob-shape (1).svg"
   inkscape:version="0.92.3 (2405546, 2018-03-11)">
  <metadata
     id="metadata3785">
    <rdf:RDF>
      <cc:Work
         rdf:about="">
        <dc:format>image/svg+xml</dc:format>
        <dc:type
           rdf:resource="http://purl.org/dc/dcmitype/StillImage" />
        <dc:title></dc:title>
      </cc:Work>
    </rdf:RDF>
  </metadata>
  <defs
     id="defs3783" />
  <sodipodi:namedview
     pagecolor="#ffffff"
     bordercolor="#666666"
     borderopacity="1"
     objecttolerance="10"
     gridtolerance="10"
     guidetolerance="10"
     inkscape:pageopacity="0"
     inkscape:pageshadow="2"
     inkscape:window-width="1920"
     inkscape:window-height="1019"
     id="namedview3781"
     showgrid="false"
     units="mm"
     inkscape:zoom="0.7"
     inkscape:cx="169.56827"
     inkscape:cy="248.39105"
     inkscape:window-x="0"
     inkscape:window-y="0"
     inkscape:window-maximized="1"
     inkscape:current-layer="svg3779"
     fit-margin-top="0"
     fit-margin-left="0"
     fit-margin-right="0"
     fit-margin-bottom="0" />
  <g
     transform="translate(233.76454,216.20221)"
     id="g3777">
    <path
       d="m 125.2,-130.7 c 47.6,21.5 104,50.9 108.1,87.6 4.2,36.7 -44,80.6 -78.6,124.7 C 120.1,125.7 99,170 66.6,181 34.1,192 -9.8,169.8 -54.1,152.1 c -44.3,-17.6 -89.1,-30.6 -124.5,-63 -35.3,-32.4 -61.3,-84.2 -53.9,-130.7 7.5,-46.6 48.3,-87.9 92.6,-109.9 44.3,-22.1 92.1,-24.8 135.4,-19.4 43.3,5.3 82.1,18.8 129.7,40.2 z"
       id="path3775"
       inkscape:connector-curvature="0"
       style="fill:#fe840e;fill-opacity:1" />
  </g>
  <g
     id="g3801"
     transform="translate(409.95877,205.47797)">
    <path
       id="path3799"
       d="m 156.9,-188.4 c 30.6,27 28.4,91.5 27,146.6 -1.5,55.1 -2.2,100.7 -20.6,139.3 -18.5,38.6 -54.6,70.1 -100.9,96.9 -46.2,26.7 -102.5,48.7 -153.2,37.7 -50.6,-10.9 -95.5,-54.8 -126.9,-107.3 -31.3,-52.5 -49.1,-113.8 -29.9,-159 19.3,-45.2 75.6,-74.5 123,-98.4 47.5,-24 86,-42.7 136.9,-57.4 50.9,-14.7 114.1,-25.3 144.6,1.6 z"
       inkscape:connector-curvature="0"
       style="fill:#4f19ff;fill-opacity:1;stroke:#4f19ff;stroke-opacity:1" />
  </g>
  <text
     xml:space="preserve"
     style="font-style:normal;font-weight:normal;font-size:40px;line-height:1.25;font-family:sans-serif;letter-spacing:0px;word-spacing:0px;fill:#000000;fill-opacity:1;stroke:none"
     x="41.335972"
     y="279.48792"
     id="text4639"><tspan
       sodipodi:role="line"
       id="tspan4637"
       x="41.335972"
       y="279.48792"
       style="font-style:normal;font-variant:normal;font-weight:normal;font-stretch:normal;font-size:192px;font-family:sans-serif;-inkscape-font-specification:Gubbi;fill:#4f19ff;fill-opacity:1">u</tspan></text>
  <text
     xml:space="preserve"
     style="font-style:normal;font-weight:normal;font-size:40px;line-height:1.25;font-family:sans-serif;letter-spacing:-10.74000168px;word-spacing:0px;fill:#fe840e;fill-opacity:1;stroke:none"
     x="170.19757"
     y="281.62857"
     id="text4639-3"><tspan
       sodipodi:role="line"
       id="tspan4637-2"
       x="170.19757"
       y="281.62857"
       style="font-style:normal;font-variant:normal;font-weight:normal;font-stretch:normal;font-size:192px;font-family:sans-serif;-inkscape-font-specification:Gubbi;letter-spacing:-10.96000195px;fill:#fe840e;fill-opacity:1">know</tspan></text>
</svg>
